<svg width="24" height="24" viewBox="0 0 24 24" fill="none" xmlns="http://www.w3.org/2000/svg">
<path d="M15.54 8.46C17.5 10.42 17.5 13.58 15.54 15.54C13.58 17.5 10.42 17.5 8.47004 15.54C6.52004 13.58 6.50004 10.42 8.47004 8.46C10.44 6.5 13.58 6.5 15.54 8.46ZM19.47 4.55C19.47 4.55 18.5 4.67 17.43 5.36C17.2596 4.24407 16.7335 3.21296 15.93 2.42C15.4149 2.91673 15.0415 3.54176 14.8482 4.23074C14.6548 4.91973 14.6486 5.64779 14.83 6.34C16.22 6.7 17.3 7.78 17.66 9.17C18.78 9.47 20.34 9.32 21.58 8.07C20.7961 7.27798 19.7804 6.75611 18.68 6.58C19.07 6 19.38 5.33 19.47 4.55ZM4.53004 19.45C4.53004 19.45 5.50004 19.33 6.57004 18.64C6.72004 19.68 7.22004 20.73 8.07004 21.58C9.32004 20.34 9.47004 18.78 9.17004 17.66C8.48851 17.4842 7.86654 17.1289 7.36884 16.6312C6.87114 16.1335 6.51589 15.5115 6.34004 14.83C5.22004 14.53 3.66004 14.68 2.42004 15.93C3.26004 16.77 4.29004 17.27 5.32004 17.42C4.93004 18 4.62004 18.68 4.53004 19.45Z" fill="#B6BAC3"/>
</svg>
