<svg width="24" height="24" viewBox="0 0 24 24" fill="none" xmlns="http://www.w3.org/2000/svg">
<path fill-rule="evenodd" clip-rule="evenodd" d="M4.4001 4.20004C3.95826 4.20004 3.60001 4.55829 3.60001 5.00013C3.60001 5.44197 3.95826 5.80009 4.4001 5.80009H5.83609L6.01046 6.72995L7.02576 13.9121C7.08148 14.3067 7.41926 14.6001 7.81783 14.6001H17.7717C18.1697 14.6001 18.5073 14.3073 18.5636 13.9132L19.5922 6.71319C19.625 6.48363 19.5565 6.25112 19.4047 6.07595C19.2527 5.90064 19.0321 5.80006 18.8002 5.80006H7.46401L7.28642 4.85264C7.21544 4.4743 6.88504 4.20001 6.50011 4.20001L4.4001 4.20004ZM8.51267 13.0002L7.72101 7.40027H17.8775L17.0775 13.0002H8.51267Z" fill="#737D94"/>
<path d="M11.6001 17.0002C11.6001 17.8838 10.8837 18.6001 10 18.6001C9.11639 18.6001 8.39999 17.8838 8.39999 17.0002C8.39999 16.1165 9.11639 15.4001 10 15.4001C10.8837 15.4001 11.6001 16.1165 11.6001 17.0002Z" fill="#737D94"/>
<path d="M17.2 17.0002C17.2 17.8838 16.4836 18.6001 15.5999 18.6001C14.7163 18.6001 14 17.8838 14 17.0002C14 16.1165 14.7163 15.4001 15.5999 15.4001C16.4836 15.4001 17.2 16.1165 17.2 17.0002Z" fill="#737D94"/>
</svg>
